<?xml version="1.0" encoding="utf-8"?>
<!-- Generator: Adobe Illustrator 22.0.1, SVG Export Plug-In . SVG Version: 6.00 Build 0)  -->
<svg version="1.1" id="Layer_1" xmlns="http://www.w3.org/2000/svg" xmlns:xlink="http://www.w3.org/1999/xlink" x="0px" y="0px"
	 viewBox="0 0 259.2 171.7" style="enable-background:new 0 0 259.2 171.7;" xml:space="preserve">
<style type="text/css">
	.st0{fill:none;stroke:#BCCEDC;stroke-width:0.25;stroke-miterlimit:10;}
	.st1{fill:#BCCEDC;}
	.st2{fill:none;stroke:#BCCEDC;stroke-miterlimit:10;}
</style>
<title>Asset 12</title>
<line class="st0" x1="179.1" y1="104.8" x2="127.3" y2="88.7"/>
<line class="st0" x1="126.2" y1="75.5" x2="154.2" y2="68.6"/>
<polyline class="st0" points="126.9,77.9 167,75.4 159,46.8 105.1,14 49.6,53.5 98.5,46.9 119.2,120.9 "/>
<polyline class="st0" points="124.4,72.2 159,46.8 175.2,31.2 190.9,86.9 167,75.4 145.1,94.1 148.4,131.4 123.4,96 "/>
<path class="st0" d="M119.2,120.9"/>
<path class="st0" d="M119.2,120.9"/>
<line class="st0" x1="106.8" y1="75.5" x2="62.1" y2="110.8"/>
<polyline class="st0" points="106.8,75.5 102.4,149.5 62.1,110.8 64.4,82.4 49.6,53.9 "/>
<polyline class="st0" points="129.6,49.2 158.8,47 158.8,35.6 "/>
<line class="st0" x1="106.8" y1="75.5" x2="116.8" y2="50.2"/>
<line class="st0" x1="106.8" y1="75.5" x2="77.3" y2="64.7"/>
<line class="st0" x1="106.8" y1="75.5" x2="88.7" y2="117.4"/>
<polyline class="st0" points="108.6,36 105.1,14 108.6,4.9 "/>
<polyline class="st0" points="33.9,47.4 49.6,53.9 26.8,70.7 0.9,58.2 "/>
<line class="st0" x1="105.1" y1="14" x2="88.7" y2="0.9"/>
<polyline class="st0" points="169.9,22.1 175.2,31.2 192.7,34.7 "/>
<polyline class="st0" points="49.6,53.9 41.7,99.8 62.1,110.8 56.6,136.2 "/>
<polyline class="st0" points="146.2,170.3 148.4,131.4 102.4,149.5 95.9,163.2 "/>
<polyline class="st0" points="189.6,118 227.8,105.5 190.9,86.9 196.9,77.9 "/>
<polyline class="st0" points="168.2,139.3 148.4,131.4 198.2,128.5 "/>
<polyline class="st0" points="128.6,159.6 102.4,149.5 67.5,147.4 56.6,136.2 49.6,134.4 "/>
<polyline class="st0" points="167,75.4 225.2,44.7 238.8,56.8 "/>
<polyline class="st0" points="190.3,52.9 185,65.9 180,64.1 "/>
<polyline class="st0" points="229.9,34.7 225.2,44.7 225.2,50.6 "/>
<polyline class="st0" points="236.3,92.6 227.8,105.5 232.1,120.9 "/>
<line class="st0" x1="227.8" y1="105.5" x2="257.8" y2="110.8"/>
<polyline class="st0" points="223.1,82.4 190.9,86.9 179.1,104.8 198.2,128.5 194.1,143.4 "/>
<polyline class="st0" points="13.4,78.9 26.8,70.7 64.4,82.4 "/>
<polyline class="st0" points="14.8,116 41.7,99.8 18.2,94.6 "/>
<line class="st0" x1="62.1" y1="110.8" x2="55.7" y2="113.1"/>
<line class="st0" x1="41.7" y1="99.8" x2="41.7" y2="113.1"/>
<line class="st0" x1="67.5" y1="147.4" x2="45.6" y2="156.1"/>
<line class="st0" x1="25.7" y1="63.2" x2="26.8" y2="70.7"/>
<line class="st0" x1="207" y1="129.4" x2="198.2" y2="128.5"/>
<polyline class="st0" points="45.6,76.6 18.2,94.6 4.7,90 "/>
<line class="st0" x1="16.2" y1="101.2" x2="18.2" y2="94.6"/>
<line class="st0" x1="148.4" y1="131.4" x2="155.8" y2="122.9"/>
<circle class="st1" cx="167" cy="75.4" r="2.9"/>
<circle class="st1" cx="49.6" cy="53.9" r="2.9"/>
<circle class="st1" cx="179.1" cy="104.8" r="1.4"/>
<circle class="st1" cx="198.2" cy="128.5" r="1.4"/>
<circle class="st1" cx="257.8" cy="111.2" r="1.4"/>
<circle class="st1" cx="192.7" cy="34.7" r="1.4"/>
<circle class="st1" cx="229.9" cy="34.7" r="1.4"/>
<circle class="st1" cx="119.2" cy="120.9" r="1.4"/>
<circle class="st1" cx="33.9" cy="47.4" r="1.4"/>
<circle class="st1" cx="64.4" cy="82.4" r="1.4"/>
<circle class="st1" cx="18.2" cy="94.6" r="1.4"/>
<circle class="st1" cx="154.2" cy="68.6" r="1.4"/>
<circle class="st1" cx="227.7" cy="105.8" r="2.6"/>
<circle class="st1" cx="116.8" cy="50.2" r="1.4"/>
<circle class="st1" cx="108.6" cy="36" r="1.4"/>
<circle class="st1" cx="108.6" cy="4.9" r="1.4"/>
<circle class="st1" cx="77.3" cy="64.7" r="1.4"/>
<circle class="st1" cx="26.7" cy="70.7" r="1.4"/>
<circle class="st1" cx="41.7" cy="99.8" r="1.4"/>
<circle class="st1" cx="14.8" cy="116" r="1.4"/>
<circle class="st1" cx="45.6" cy="156.1" r="1.2"/>
<circle class="st1" cx="56.6" cy="136.2" r="1.2"/>
<circle class="st1" cx="13.4" cy="78.9" r="1.2"/>
<circle class="st1" cx="25.7" cy="63.2" r="1.2"/>
<circle class="st1" cx="55.7" cy="113.1" r="0.7"/>
<circle class="st1" cx="16.2" cy="101.1" r="0.7"/>
<circle class="st1" cx="95.9" cy="163.2" r="1.4"/>
<circle class="st1" cx="128.9" cy="159.7" r="1.4"/>
<circle class="st1" cx="146.1" cy="170.3" r="1.4"/>
<circle class="st1" cx="168.2" cy="139.3" r="1.4"/>
<circle class="st1" cx="88.7" cy="117.4" r="1.4"/>
<circle class="st1" cx="67.4" cy="147.4" r="1.4"/>
<circle class="st1" cx="129.6" cy="49.2" r="1.4"/>
<circle class="st1" cx="238.8" cy="56.8" r="1.4"/>
<circle class="st1" cx="223.1" cy="82.4" r="1.4"/>
<circle class="st1" cx="158.8" cy="36" r="0.9"/>
<circle class="st1" cx="41.8" cy="113.1" r="0.9"/>
<circle class="st1" cx="49.6" cy="134.4" r="0.9"/>
<circle class="st1" cx="4.7" cy="90" r="0.9"/>
<circle class="st1" cx="0.9" cy="58.2" r="1"/>
<circle class="st1" cx="169.9" cy="22.1" r="0.9"/>
<circle class="st1" cx="225.2" cy="50.6" r="0.9"/>
<circle class="st1" cx="236.3" cy="92.6" r="0.9"/>
<circle class="st1" cx="207" cy="129.4" r="0.9"/>
<circle class="st1" cx="155.8" cy="122.9" r="0.9"/>
<circle class="st1" cx="232.1" cy="120.9" r="1.3"/>
<circle class="st1" cx="194.1" cy="143.4" r="1.3"/>
<circle class="st1" cx="190.3" cy="52.9" r="1.3"/>
<circle class="st1" cx="180" cy="64.2" r="0.9"/>
<circle class="st1" cx="196.6" cy="78.3" r="0.9"/>
<circle class="st1" cx="88.7" cy="0.9" r="0.9"/>
<circle class="st1" cx="148.5" cy="131.2" r="1.9"/>
<circle class="st1" cx="102.1" cy="149.2" r="1.9"/>
<circle class="st1" cx="190.9" cy="86.9" r="1.9"/>
<circle class="st1" cx="189.7" cy="117.8" r="1.9"/>
<circle class="st1" cx="105.1" cy="14.2" r="1.8"/>
<circle class="st1" cx="98.6" cy="47" r="1.8"/>
<circle class="st1" cx="106.5" cy="75.5" r="1.8"/>
<circle class="st1" cx="185" cy="65.8" r="1.9"/>
<circle class="st1" cx="45.6" cy="76.9" r="1.8"/>
<circle class="st1" cx="175.2" cy="31.2" r="1.9"/>
<circle class="st1" cx="225.2" cy="45.1" r="1.9"/>
<circle class="st1" cx="145.3" cy="94.6" r="2.3"/>
<circle class="st1" cx="62.1" cy="110.8" r="2.3"/>
<circle class="st1" cx="158.8" cy="47" r="2.3"/>
<path class="st2" d="M33.4,47"/>
</svg>
