<svg xmlns="http://www.w3.org/2000/svg" width="32" height="26" viewBox="0 0 32 26">
  <metadata><?xpacket begin="﻿" id="W5M0MpCehiHzreSzNTczkc9d"?>
<x:xmpmeta xmlns:x="adobe:ns:meta/" x:xmptk="Adobe XMP Core 5.6-c142 79.160924, 2017/07/13-01:06:39        ">
   <rdf:RDF xmlns:rdf="http://www.w3.org/1999/02/22-rdf-syntax-ns#">
      <rdf:Description rdf:about=""/>
   </rdf:RDF>
</x:xmpmeta>
                                                                                                    
                                                                                                    
                                                                                                    
                                                                                                    
                                                                                                    
                                                                                                    
                                                                                                    
                                                                                                    
                                                                                                    
                                                                                                    
                                                                                                    
                                                                                                    
                                                                                                    
                                                                                                    
                                                                                                    
                                                                                                    
                                                                                                    
                                                                                                    
                                                                                                    
                                                                                                    
                           
<?xpacket end="w"?></metadata>
<defs>
    <style>
      .cls-1 {
      fill: #fbf7ac;
        fill-rule: evenodd;
      }
    </style>
  </defs>
  <path class="cls-1" d="M6.5,0.971A5.528,5.528,0,1,1,.97,6.5,5.539,5.539,0,0,1,6.5.971M6.5,0A6.5,6.5,0,1,0,13,6.5,6.507,6.507,0,0,0,6.5,0h0ZM8.893,8.547,4.585,9.759V8.068H2.739V7.08H4.574V5.494H2.745v-1h1.84V2.939A1.223,1.223,0,0,1,4.71,2.927c1.012,0,2.03-.012,3.042.006a2.2,2.2,0,0,1,1.32.4,1.545,1.545,0,0,1,.237,2.342c-0.059.065-.118,0.13-0.189,0.2a2.02,2.02,0,0,1,.864.7,1.871,1.871,0,0,1-.627,2.68,3.492,3.492,0,0,1-1.8.5c-0.959.03-1.911,0.012-2.87,0.012A0.2,0.2,0,0,1,4.585,9.759Zm1.3-3.1V8.624c0.669,0,1.331.024,1.982-.012a2.1,2.1,0,0,0,.8-0.254,0.767,0.767,0,0,0,.077-1.319A2.627,2.627,0,0,0,7.982,6.7,7.3,7.3,0,0,0,5.887,6.66ZM5.881,5.832c0.4-.03.781-0.035,1.154-0.083a3.426,3.426,0,0,0,.84-0.207,0.8,0.8,0,0,0,.5-0.852A0.807,0.807,0,0,0,7.734,4a9.219,9.219,0,0,0-1.852-.089V5.832ZM25.5,13.971A5.528,5.528,0,1,1,19.97,19.5a5.539,5.539,0,0,1,5.53-5.528m0-.972A6.5,6.5,0,1,0,32,19.5,6.507,6.507,0,0,0,25.5,13h0Zm-0.4,8.335,0.423-1.6,1-.367,0.25-.938-0.01-.02-0.989.362,0.714-2.682h-2.02l-0.933,3.5-0.775.285-0.26.964,0.78-.28-0.551,2.06H28.11l0.342-1.285H25.1ZM25.624,0.671l0.753,0.659-21,24-0.753-.659Z"/>
</svg>
