<svg xmlns="http://www.w3.org/2000/svg" width="22" height="25" viewBox="0 0 22 25">
  <metadata><?xpacket begin="﻿" id="W5M0MpCehiHzreSzNTczkc9d"?>
<x:xmpmeta xmlns:x="adobe:ns:meta/" x:xmptk="Adobe XMP Core 5.6-c142 79.160924, 2017/07/13-01:06:39        ">
   <rdf:RDF xmlns:rdf="http://www.w3.org/1999/02/22-rdf-syntax-ns#">
      <rdf:Description rdf:about=""/>
   </rdf:RDF>
</x:xmpmeta>
                                                                                                    
                                                                                                    
                                                                                                    
                                                                                                    
                                                                                                    
                                                                                                    
                                                                                                    
                                                                                                    
                                                                                                    
                                                                                                    
                                                                                                    
                                                                                                    
                                                                                                    
                                                                                                    
                                                                                                    
                                                                                                    
                                                                                                    
                                                                                                    
                                                                                                    
                                                                                                    
                           
<?xpacket end="w"?></metadata>
<defs>
    <style>
      .cls-1 {
        fill: #fbf7ac;
        fill-rule: evenodd;
      }
    </style>
  </defs>
  <path id="caldendar" class="cls-1" d="M101.593,1706.5H98.741v-2.08a0.415,0.415,0,0,0-.407-0.42H95.074a0.415,0.415,0,0,0-.407.42v2.08H87.333v-2.08a0.415,0.415,0,0,0-.407-0.42H83.667a0.415,0.415,0,0,0-.407.42v2.08H80.407a0.415,0.415,0,0,0-.407.42v21.66a0.415,0.415,0,0,0,.407.42h21.186a0.415,0.415,0,0,0,.407-0.42v-21.66A0.415,0.415,0,0,0,101.593,1706.5Zm-6.112-1.67h2.444V1709H95.482v-4.17Zm-11.407,0h2.444V1709H84.074v-4.17Zm17.111,23.34H80.815v-15.84h20.37v15.84Zm0-16.67H80.815v-4.17h2.444v2.09a0.406,0.406,0,0,0,.407.41h3.259a0.406,0.406,0,0,0,.407-0.41v-2.09h7.333v2.09a0.406,0.406,0,0,0,.407.41h3.259a0.406,0.406,0,0,0,.407-0.41v-2.09h2.444v4.17Zm-2.852,3.33H83.667a0.415,0.415,0,0,0-.407.42v10a0.415,0.415,0,0,0,.407.42H98.333a0.415,0.415,0,0,0,.407-0.42v-10A0.415,0.415,0,0,0,98.333,1714.83Zm-11.407,10H84.074v-2.5h2.852v2.5Zm0-3.33H84.074V1719h2.852v2.5Zm0-3.33H84.074v-2.5h2.852v2.5Zm3.667,6.66H87.741v-2.5h2.852v2.5Zm0-3.33H87.741V1719h2.852v2.5Zm0-3.33H87.741v-2.5h2.852v2.5Zm3.667,6.66H91.407v-2.5h2.852v2.5Zm0-3.33H91.407V1719h2.852v2.5Zm0-3.33H91.407v-2.5h2.852v2.5Zm3.667,6.66H95.074v-2.5h2.852v2.5Zm0-3.33H95.074V1719h2.852v2.5Zm0-3.33H95.074v-2.5h2.852v2.5Z" transform="translate(-80 -1704)"/>
</svg>
