<svg xmlns="http://www.w3.org/2000/svg" width="27" height="27" viewBox="0 0 27 27">
  <metadata><?xpacket begin="﻿" id="W5M0MpCehiHzreSzNTczkc9d"?>
<x:xmpmeta xmlns:x="adobe:ns:meta/" x:xmptk="Adobe XMP Core 5.6-c142 79.160924, 2017/07/13-01:06:39        ">
   <rdf:RDF xmlns:rdf="http://www.w3.org/1999/02/22-rdf-syntax-ns#">
      <rdf:Description rdf:about=""/>
   </rdf:RDF>
</x:xmpmeta>
                                                                                                    
                                                                                                    
                                                                                                    
                                                                                                    
                                                                                                    
                                                                                                    
                                                                                                    
                                                                                                    
                                                                                                    
                                                                                                    
                                                                                                    
                                                                                                    
                                                                                                    
                                                                                                    
                                                                                                    
                                                                                                    
                                                                                                    
                                                                                                    
                                                                                                    
                                                                                                    
                           
<?xpacket end="w"?></metadata>
<defs>
    <style>
      .cls-1 {
        fill-rule: evenodd;
      }
    </style>
  </defs>
  <path id="Forma_1" data-name="Forma 1" class="cls-1" d="M2504.44,3254.87h-25.88a0.568,0.568,0,0,0-.56.57,0.559,0.559,0,0,0,.56.56h25.88a0.559,0.559,0,0,0,.56-0.56A0.568,0.568,0,0,0,2504.44,3254.87Zm-21.38-6.75h-3.37a0.576,0.576,0,0,0-.57.57v6.75a0.568,0.568,0,0,0,.57.56h3.37a0.568,0.568,0,0,0,.57-0.56v-6.75A0.576,0.576,0,0,0,2483.06,3248.12Zm-0.56,6.75h-2.25v-5.62h2.25v5.62h0Zm7.31-12.37h-3.37a0.568,0.568,0,0,0-.57.56v12.38a0.568,0.568,0,0,0,.57.56h3.37a0.559,0.559,0,0,0,.56-0.56v-12.38A0.559,0.559,0,0,0,2489.81,3242.5Zm-0.56,12.37H2487v-11.25h2.25v11.25h0Zm7.31-10.12h-3.37a0.568,0.568,0,0,0-.57.56v10.13a0.568,0.568,0,0,0,.57.56h3.37a0.559,0.559,0,0,0,.56-0.56v-10.13A0.559,0.559,0,0,0,2496.56,3244.75Zm-0.56,10.12h-2.25v-9H2496v9Zm7.31-16.87h-3.37a0.568,0.568,0,0,0-.57.56v16.88a0.568,0.568,0,0,0,.57.56h3.37a0.559,0.559,0,0,0,.56-0.56v-16.88A0.559,0.559,0,0,0,2503.31,3238Zm-0.56,16.87h-2.25v-15.75h2.25v15.75Zm-21.38-15.75a2.255,2.255,0,1,0,2.26,2.25A2.253,2.253,0,0,0,2481.37,3239.12Zm0,3.38a1.125,1.125,0,1,1,1.13-1.13A1.127,1.127,0,0,1,2481.37,3242.5Zm6.75-9a2.25,2.25,0,1,0,2.25,2.25A2.253,2.253,0,0,0,2488.12,3233.5Zm0,3.37a1.12,1.12,0,1,1,1.13-1.12A1.118,1.118,0,0,1,2488.12,3236.87Zm6.75-1.12a2.25,2.25,0,1,0,2.25,2.25A2.253,2.253,0,0,0,2494.87,3235.75Zm0,3.37A1.12,1.12,0,1,1,2496,3238,1.118,1.118,0,0,1,2494.87,3239.12Zm6.75-10.12a2.25,2.25,0,1,0,2.25,2.25A2.253,2.253,0,0,0,2501.62,3229Zm0,3.37a1.12,1.12,0,1,1,1.13-1.12A1.118,1.118,0,0,1,2501.62,3232.37Zm-0.79-.33a0.555,0.555,0,0,0-.79,0l-4.37,4.37a0.565,0.565,0,0,0,.4.96,0.578,0.578,0,0,0,.4-0.17l4.36-4.36A0.567,0.567,0,0,0,2500.83,3232.04Zm-7.32,4.66-3.61-1.03a0.552,0.552,0,0,0-.69.39,0.546,0.546,0,0,0,.38.69l3.62,1.03a0.4,0.4,0,0,0,.15.03A0.566,0.566,0,0,0,2493.51,3236.7Zm-6.26-.25a0.569,0.569,0,0,0-.79-0.09l-4.24,3.38a0.56,0.56,0,0,0,.35,1,0.592,0.592,0,0,0,.35-0.12l4.24-3.38A0.568,0.568,0,0,0,2487.25,3236.45Z" transform="translate(-2478 -3229)"/>
</svg>
