<svg xmlns="http://www.w3.org/2000/svg" width="24" height="24" viewBox="0 0 24 24">
  <metadata><?xpacket begin="﻿" id="W5M0MpCehiHzreSzNTczkc9d"?>
<x:xmpmeta xmlns:x="adobe:ns:meta/" x:xmptk="Adobe XMP Core 5.6-c142 79.160924, 2017/07/13-01:06:39        ">
   <rdf:RDF xmlns:rdf="http://www.w3.org/1999/02/22-rdf-syntax-ns#">
      <rdf:Description rdf:about=""/>
   </rdf:RDF>
</x:xmpmeta>
                                                                                                    
                                                                                                    
                                                                                                    
                                                                                                    
                                                                                                    
                                                                                                    
                                                                                                    
                                                                                                    
                                                                                                    
                                                                                                    
                                                                                                    
                                                                                                    
                                                                                                    
                                                                                                    
                                                                                                    
                                                                                                    
                                                                                                    
                                                                                                    
                                                                                                    
                                                                                                    
                           
<?xpacket end="w"?></metadata>
<defs>
    <style>
      .cls-1 {
        fill: #424242;
        fill-rule: evenodd;
      }
    </style>
  </defs>
  <path id="exchange" class="cls-1" d="M84.6,1499.01a5.6,5.6,0,1,0,5.6,5.6A5.6,5.6,0,0,0,84.6,1499.01Zm0,10.39a4.8,4.8,0,1,1,4.8-4.79A4.8,4.8,0,0,1,84.6,1509.4Zm12.8,2.4a5.6,5.6,0,1,0,5.6,5.6A5.6,5.6,0,0,0,97.406,1511.8Zm0,10.39a4.8,4.8,0,1,1,4.8-4.79A4.793,4.793,0,0,1,97.406,1522.19Zm-5.482-20.74,1.363-1.36-0.565-.56-2.284,2.28,2.284,2.28,0.566-.57-1.256-1.25a8.8,8.8,0,0,1,7.775,8.73h0.8A9.611,9.611,0,0,0,91.924,1501.45Zm-2.638,16.46-0.566.57,1.256,1.25A8.8,8.8,0,0,1,82.2,1511H81.4a9.612,9.612,0,0,0,8.683,9.55l-1.363,1.36,0.566,0.57,2.283-2.29Zm-2.837-13.3a1.592,1.592,0,0,0-1.047-2.8v-0.8H84.6v0.8H83.8v-0.8H83v0.8H82.2v5.59H83v0.8h0.8v-0.8h0.8v0.8h0.8v-0.8A1.586,1.586,0,0,0,86.45,1504.61ZM85.4,1506.6H83V1505h2.4A0.8,0.8,0,1,1,85.4,1506.6Zm0-2.39H83v-1.6h2.4A0.8,0.8,0,1,1,85.4,1504.21Zm12.8,12.79h-1.6a0.8,0.8,0,1,1,0-1.6h1.6a0.8,0.8,0,0,1,.8.8h0.8a1.6,1.6,0,0,0-1.6-1.6h-0.4v-0.8h-0.8v0.8h-0.4a1.6,1.6,0,1,0,0,3.2h1.6a0.8,0.8,0,1,1,0,1.59h-1.6a0.793,0.793,0,0,1-.8-0.79h-0.8a1.594,1.594,0,0,0,1.6,1.59h0.4v0.8h0.8v-0.8h0.4A1.6,1.6,0,1,0,98.207,1517Z" transform="translate(-79 -1499)"/>
</svg>
