<svg xmlns="http://www.w3.org/2000/svg" width="25" height="25" viewBox="0 0 25 25">
  <metadata><?xpacket begin="﻿" id="W5M0MpCehiHzreSzNTczkc9d"?>
<x:xmpmeta xmlns:x="adobe:ns:meta/" x:xmptk="Adobe XMP Core 5.6-c142 79.160924, 2017/07/13-01:06:39        ">
   <rdf:RDF xmlns:rdf="http://www.w3.org/1999/02/22-rdf-syntax-ns#">
      <rdf:Description rdf:about=""/>
   </rdf:RDF>
</x:xmpmeta>
                                                                                                    
                                                                                                    
                                                                                                    
                                                                                                    
                                                                                                    
                                                                                                    
                                                                                                    
                                                                                                    
                                                                                                    
                                                                                                    
                                                                                                    
                                                                                                    
                                                                                                    
                                                                                                    
                                                                                                    
                                                                                                    
                                                                                                    
                                                                                                    
                                                                                                    
                                                                                                    
                           
<?xpacket end="w"?></metadata>
<defs>
    <style>
      .cls-1 {
        fill: #fbf7ac;
        fill-rule: evenodd;
      }
    </style>
  </defs>
  <path id="limit" class="cls-1" d="M2571.5,3137a12.5,12.5,0,1,0,12.5,12.5,12.517,12.517,0,0,0-12.5-12.5h0Zm0,24.24a11.74,11.74,0,1,1,11.74-11.74,11.758,11.758,0,0,1-11.74,11.74h0Zm0-2.05,0-2.85a2.591,2.591,0,0,1-2.59-2.59,10.971,10.971,0,0,1,1.25-3.51c0.63-1.32,1.24-2.43,1.25-2.44a0.1,0.1,0,0,1,.09-0.06,0.105,0.105,0,0,1,.09.05c0.07,0.13.66,1.21,1.25,2.45a10.971,10.971,0,0,1,1.25,3.51A2.591,2.591,0,0,1,2571.5,3156.34Zm-7.22-5.52a1.314,1.314,0,1,1,.94-0.39A1.327,1.327,0,0,1,2564.28,3150.82Zm7.22-7.22a1.314,1.314,0,1,1,.93-0.38A1.343,1.343,0,0,1,2571.5,3143.6Zm-5.1,2.12a1.315,1.315,0,0,1-.94-0.39,1.334,1.334,0,0,1,0-1.87,1.34,1.34,0,0,1,1.87,0,1.334,1.334,0,0,1,0,1.87l-0.04.04A1.327,1.327,0,0,1,2566.4,3145.72Zm10.2-.01a1.3,1.3,0,0,1-.93-0.38,1.316,1.316,0,0,1,0-1.87,1.328,1.328,0,0,1,1.86,0,1.316,1.316,0,0,1,0,1.87A1.3,1.3,0,0,1,2576.6,3145.71Zm2.12,5.11a1.332,1.332,0,1,1,.93-0.39A1.333,1.333,0,0,1,2578.72,3150.82Z" transform="translate(-2559 -3137)"/>
</svg>
