<svg xmlns="http://www.w3.org/2000/svg" width="21" height="21" viewBox="0 0 21 21">
  <metadata><?xpacket begin="﻿" id="W5M0MpCehiHzreSzNTczkc9d"?>
<x:xmpmeta xmlns:x="adobe:ns:meta/" x:xmptk="Adobe XMP Core 5.6-c142 79.160924, 2017/07/13-01:06:39        ">
   <rdf:RDF xmlns:rdf="http://www.w3.org/1999/02/22-rdf-syntax-ns#">
      <rdf:Description rdf:about=""/>
   </rdf:RDF>
</x:xmpmeta>
                                                                                                    
                                                                                                    
                                                                                                    
                                                                                                    
                                                                                                    
                                                                                                    
                                                                                                    
                                                                                                    
                                                                                                    
                                                                                                    
                                                                                                    
                                                                                                    
                                                                                                    
                                                                                                    
                                                                                                    
                                                                                                    
                                                                                                    
                                                                                                    
                                                                                                    
                                                                                                    
                           
<?xpacket end="w"?></metadata>
<defs>
    <style>
      .cls-1 {
        fill: #757575;
        fill-rule: evenodd;
      }
    </style>
  </defs>
  <path id="market" class="cls-1" d="M81.313,1589.69H101V1591H80v-21h2.625v1.31H81.313v2.63h1.313v1.31H81.313v2.63h1.313v1.31H81.313v2.62h1.313v1.32H81.313v2.62h1.313v1.31H81.313v2.63Zm3.938-2.63a1.295,1.295,0,0,0,.768-2.35l1.7-4.24c0.054,0,.1.03,0.159,0.03a1.477,1.477,0,0,0,.424-0.08l1.231,1.84a1.3,1.3,0,0,0-.342.87,1.313,1.313,0,0,0,2.625,0,1.286,1.286,0,0,0-.607-1.08l1.834-5.51a0.26,0.26,0,0,0,.086.02,1.312,1.312,0,0,0,.651-0.19l2.171,2.17a1.266,1.266,0,0,0-.2.65,1.313,1.313,0,0,0,2.625,0,1.285,1.285,0,0,0-.608-1.08l1.834-5.5c0.029,0,.055.02,0.086,0.02a1.315,1.315,0,1,0-1.312-1.32,1.285,1.285,0,0,0,.608,1.08l-1.834,5.5c-0.029,0-.055-0.01-0.086-0.01a1.312,1.312,0,0,0-.651.19l-2.171-2.17a1.267,1.267,0,0,0,.2-0.65,1.313,1.313,0,1,0-2.017,1.08l-1.835,5.5c-0.029,0-.055-0.02-0.085-0.02a1.209,1.209,0,0,0-.424.09l-1.231-1.85a1.291,1.291,0,0,0,.342-0.86,1.313,1.313,0,0,0-2.625,0,1.281,1.281,0,0,0,.545,1.03l-1.7,4.25a0.857,0.857,0,0,0-.159-0.03A1.31,1.31,0,1,0,85.25,1587.06Z" transform="translate(-80 -1570)"/>
</svg>
