<svg xmlns="http://www.w3.org/2000/svg" width="23" height="23" viewBox="0 0 23 23">
  <metadata><?xpacket begin="﻿" id="W5M0MpCehiHzreSzNTczkc9d"?>
<x:xmpmeta xmlns:x="adobe:ns:meta/" x:xmptk="Adobe XMP Core 5.6-c142 79.160924, 2017/07/13-01:06:39        ">
   <rdf:RDF xmlns:rdf="http://www.w3.org/1999/02/22-rdf-syntax-ns#">
      <rdf:Description rdf:about=""/>
   </rdf:RDF>
</x:xmpmeta>
                                                                                                    
                                                                                                    
                                                                                                    
                                                                                                    
                                                                                                    
                                                                                                    
                                                                                                    
                                                                                                    
                                                                                                    
                                                                                                    
                                                                                                    
                                                                                                    
                                                                                                    
                                                                                                    
                                                                                                    
                                                                                                    
                                                                                                    
                                                                                                    
                                                                                                    
                                                                                                    
                           
<?xpacket end="w"?></metadata>
<defs>
    <style>
      .cls-1 {
        fill: #fbf7ac;
        fill-rule: evenodd;
      }
    </style>
  </defs>
  <path id="time" class="cls-1" d="M91.5,1638a11.5,11.5,0,1,0,11.5,11.5A11.514,11.514,0,0,0,91.5,1638Zm0,22.23a10.73,10.73,0,1,1,10.733-10.73A10.742,10.742,0,0,1,91.5,1660.23Zm0.383-12.26v-3.88a0.383,0.383,0,1,0-.767,0v3.88a1.532,1.532,0,0,0-1.1,1.1H87.283a0.385,0.385,0,0,0,0,.77h2.738A1.531,1.531,0,1,0,91.883,1647.97Zm-0.383,2.25a0.765,0.765,0,1,1,.767-0.77A0.766,0.766,0,0,1,91.5,1650.22Zm0-8.43a0.384,0.384,0,0,0,.383-0.39v-0.38a0.383,0.383,0,0,0-.767,0v0.38A0.384,0.384,0,0,0,91.5,1641.79Zm0,15.33a0.382,0.382,0,0,0-.383.38v0.39a0.383,0.383,0,0,0,.767,0v-0.39A0.382,0.382,0,0,0,91.5,1657.12Zm8.433-8.05H99.55a0.385,0.385,0,0,0,0,.77h0.383A0.385,0.385,0,0,0,99.933,1649.07Zm-16.483,0H83.067a0.385,0.385,0,0,0,0,.77H83.45A0.385,0.385,0,0,0,83.45,1649.07Zm13.742-5.85-0.271.27a0.38,0.38,0,0,0,0,.54,0.389,0.389,0,0,0,.542,0l0.271-.27A0.383,0.383,0,0,0,97.192,1643.22Zm-11.655,11.65-0.271.28a0.381,0.381,0,0,0,0,.54,0.389,0.389,0,0,0,.542,0l0.271-.27A0.386,0.386,0,1,0,85.537,1654.87Zm11.926,0a0.383,0.383,0,0,0-.542,0,0.393,0.393,0,0,0,0,.55l0.271,0.27a0.389,0.389,0,0,0,.542,0,0.38,0.38,0,0,0,0-.54Zm-11.655-11.65a0.383,0.383,0,0,0-.542.54l0.271,0.27a0.389,0.389,0,0,0,.542,0,0.38,0.38,0,0,0,0-.54Z" transform="translate(-80 -1638)"/>
</svg>
